<svg width="96" height="96" fill="none" xmlns="http://www.w3.org/2000/svg"><circle cx="48" cy="48" r="48" fill="#FCB72B"/><path fill-rule="evenodd" clip-rule="evenodd" d="M53.8 24H33.01a4.003 4.003 0 0 0-3.997 3.998v39.978a4.003 4.003 0 0 0 3.998 3.998H53v-1.43a18.177 18.177 0 0 1 3.064-10.12.8.8 0 0 0-.1-1.008l-5.597-5.597a2.593 2.593 0 0 1 .19-3.839 2.693 2.693 0 0 1 3.58.276l7.892 7.893 1.131-1.13-5.363-5.365V27.998A4.003 4.003 0 0 0 53.8 24Zm2.398 26.055-.93-.93a4.304 4.304 0 0 0-5.729-.38 4.193 4.193 0 0 0-.303 6.204l5.142 5.142a19.768 19.768 0 0 0-2.972 10.284H33.011a2.4 2.4 0 0 1-2.4-2.398v-2.4h19.99V63.98h-19.99V30.397h25.587v19.658ZM30.612 28.797h25.586v-.8A2.4 2.4 0 0 0 53.8 25.6H33.01a2.4 2.4 0 0 0-2.398 2.399v.8ZM60.155 42.6l-1.078 1.18 4.903 4.494a5.61 5.61 0 0 1 1.813 4.127v19.573h1.6V52.401a7.215 7.215 0 0 0-2.334-5.306L60.155 42.6ZM33.81 38.392h3.198c.884 0 1.6-.716 1.6-1.599v-3.198c0-.883-.716-1.6-1.6-1.6H33.81c-.883 0-1.599.717-1.599 1.6v3.198c0 .883.716 1.6 1.6 1.6Zm0-4.797h3.198v3.198H33.81v-3.198Zm11.194 4.797h-3.198c-.883 0-1.6-.716-1.6-1.599v-3.198c0-.883.716-1.6 1.6-1.6h3.198c.884 0 1.6.717 1.6 1.6v3.198c0 .883-.716 1.6-1.6 1.6Zm0-4.797h-3.198v3.198h3.198v-3.198Zm4.798 4.797H53c.883 0 1.599-.716 1.599-1.599v-3.198c0-.883-.716-1.6-1.6-1.6h-3.197c-.884 0-1.6.717-1.6 1.6v3.198c0 .883.716 1.6 1.6 1.6Zm0-4.797H53v3.198h-3.198v-3.198ZM37.008 46.388H33.81c-.883 0-1.599-.716-1.599-1.6v-3.197c0-.884.716-1.6 1.6-1.6h3.197c.884 0 1.6.716 1.6 1.6v3.198c0 .883-.716 1.6-1.6 1.6Zm0-4.797H33.81v3.198h3.198V41.59ZM33.81 54.384h3.198c.884 0 1.6-.716 1.6-1.6v-3.198c0-.883-.716-1.599-1.6-1.599H33.81c-.883 0-1.599.716-1.599 1.6v3.198c0 .883.716 1.599 1.6 1.599Zm0-4.798h3.198v3.199H33.81v-3.199Zm11.194-3.198h-3.198c-.883 0-1.6-.716-1.6-1.6v-3.197c0-.884.716-1.6 1.6-1.6h3.198c.884 0 1.6.716 1.6 1.6v3.198c0 .883-.716 1.6-1.6 1.6Zm0-4.797h-3.198v3.198h3.198V41.59Zm4.798 4.797H53c.883 0 1.599-.716 1.599-1.6v-3.197c0-.884-.716-1.6-1.6-1.6h-3.197c-.884 0-1.6.716-1.6 1.6v3.198c0 .883.716 1.6 1.6 1.6Zm0-4.797H53v3.198h-3.198V41.59Zm-4.798 12.793h-3.198c-.883 0-1.6-.716-1.6-1.6v-3.198c0-.883.716-1.599 1.6-1.599h3.198c.884 0 1.6.716 1.6 1.6v3.198c0 .883-.716 1.599-1.6 1.599Zm0-4.798h-3.198v3.199h3.198v-3.199ZM33.81 62.38h3.198c.884 0 1.6-.716 1.6-1.6v-3.198c0-.883-.716-1.6-1.6-1.6H33.81c-.883 0-1.599.717-1.599 1.6v3.198c0 .884.716 1.6 1.6 1.6Zm0-4.798h3.198v3.198H33.81v-3.198Zm11.194 4.797h-3.198c-.883 0-1.6-.715-1.6-1.599v-3.198c0-.883.716-1.6 1.6-1.6h3.198c.884 0 1.6.717 1.6 1.6v3.198c0 .884-.716 1.6-1.6 1.6Zm0-4.797h-3.198v3.198h3.198v-3.198Zm-.8 9.595h-1.599v1.6h1.6v-1.6Z" fill="#495567"/></svg>